<?xml version="1.0" encoding="utf-8"?>
<!-- Generator: Adobe Illustrator 21.1.0, SVG Export Plug-In . SVG Version: 6.00 Build 0)  -->
<svg version="1.1" id="Layer_1" xmlns="http://www.w3.org/2000/svg" xmlns:xlink="http://www.w3.org/1999/xlink" x="0px" y="0px"
	 viewBox="0 0 16383 3080" style="enable-background:new 0 0 16383 3080;" xml:space="preserve">
<style type="text/css">
	.st0{fill:#FF0000;stroke:#000000;stroke-miterlimit:10;}
</style>
<path class="st0" d="M0,1781.3c492.4-258.2,922.9-366.3,1216.3-416.7c150.1-25.8,1113.4-181.8,2083.3,116.7
	c137.8,42.4,328.1,110.1,616.7,150c216.6,30,463.6,40.8,900,0c529.3-49.4,931.5-136.8,1066.7-166.7
	c1337.5-295.2,1270.3-393.1,1783.3-450c847-94,1571.2,112.8,1866.7,200c693.2,204.6,897.4,427.3,1550,466.7
	c334.7,20.2,447.4-28.4,983.3-66.7c637.7-45.6,1162.2-25.7,1516.7,0c368.6-75.2,1044.3-199.3,1716.7-233.3
	c173.5-8.8,389.9-13.7,650,66.7c279.7,86.5,480.5,231.6,600,333.3"/>
</svg>
